<svg id="visual" viewBox="0 0 900 600" width="900" height="600" xmlns="http://www.w3.org/2000/svg" xmlns:xlink="http://www.w3.org/1999/xlink" version="1.1"><rect x="0" y="0" width="900" height="600" fill="#001220"></rect><defs><linearGradient id="grad1_0" x1="33.3%" y1="0%" x2="100%" y2="100%"><stop offset="20%" stop-color="#001220" stop-opacity="1"></stop><stop offset="80%" stop-color="#001220" stop-opacity="1"></stop></linearGradient></defs><defs><linearGradient id="grad2_0" x1="0%" y1="0%" x2="66.7%" y2="100%"><stop offset="20%" stop-color="#001220" stop-opacity="1"></stop><stop offset="80%" stop-color="#001220" stop-opacity="1"></stop></linearGradient></defs><g transform="translate(900, 0)"><path d="M0 486.7C-53.1 454.2 -106.2 421.6 -166.8 402.8C-227.5 384 -295.8 378.9 -344.2 344.2C-392.6 309.5 -421.2 245.2 -441.6 182.9C-462.1 120.6 -474.4 60.3 -486.7 0L0 0Z" fill="#3c5dfa"></path></g><g transform="translate(0, 600)"><path d="M0 -486.7C63.8 -466.7 127.6 -446.7 169.5 -409.3C211.5 -371.8 231.7 -316.9 281.4 -281.4C331.2 -246 410.5 -229.9 449.7 -186.3C488.9 -142.6 487.8 -71.3 486.7 0L0 0Z" fill="#3c5dfa"></path></g></svg>