<svg version="1.1" id="Layer_1" xmlns="http://www.w3.org/2000/svg" xmlns:xlink="http://www.w3.org/1999/xlink" x="0px" y="0px"
	 width="100%" viewBox="0 0 189 184" enable-background="new 0 0 189 184" xml:space="preserve">
<path fill="#000000" opacity="1.000000" stroke="none" 
	d="
M1.000000,71.000000 
	C1.000000,47.333340 1.000000,24.166677 1.000000,1.000012 
	C63.999981,1.000008 126.999962,1.000008 189.999954,1.000004 
	C189.999969,62.333298 189.999969,123.666595 189.999985,184.999908 
	C127.000053,184.999939 64.000099,184.999939 1.000075,184.999969 
	C1.000000,147.166672 1.000000,109.333336 1.000000,71.000000 
M124.011269,21.002014 
	C124.011269,21.002014 124.055367,20.959709 123.913376,20.449930 
	C123.607155,20.360676 123.300934,20.271423 122.383621,19.909445 
	C120.922470,19.008905 119.461319,18.108368 117.405312,16.914663 
	C116.291496,16.258932 115.177681,15.603200 114.000679,14.971711 
	C114.000679,14.971711 114.064209,14.963705 113.930382,14.398928 
	C113.588974,14.313408 113.247559,14.227888 112.528145,14.020314 
	C112.528145,14.020314 112.137428,13.948678 111.947960,13.410947 
	C111.615189,13.332419 111.282417,13.253892 110.404060,12.952538 
	C109.919121,12.717266 109.434181,12.481995 108.348091,11.914543 
	C105.883629,11.668061 103.419167,11.421579 100.500366,11.019152 
	C100.500366,11.019152 100.043472,11.180517 99.532883,11.175256 
	C99.330917,11.439923 99.128952,11.704591 98.174362,11.979811 
	C95.781471,13.665262 93.388580,15.350714 90.267967,17.094151 
	C86.518379,19.393118 82.768799,21.692083 78.310196,24.078815 
	C76.522713,25.051399 74.735229,26.023983 72.462860,27.121668 
	C72.301582,27.401255 72.140305,27.680841 71.358376,28.040834 
	C70.881142,28.344105 70.403900,28.647375 70.001526,28.979301 
	C70.001526,28.979301 69.941521,28.925842 69.242439,29.016300 
	C67.168747,30.395691 65.095062,31.775080 62.401459,33.000443 
	C61.917744,33.317497 61.434029,33.634556 60.988800,34.000755 
	C60.988800,34.000755 60.940895,33.956032 60.291973,34.229176 
	C54.872883,37.452076 49.453793,40.674976 43.886906,43.876575 
	C43.886906,43.876575 43.858261,44.023121 43.283794,44.004406 
	C42.868073,44.310635 42.452351,44.616863 41.915924,44.921860 
	C41.915924,44.921860 41.909561,45.042404 41.442173,45.134098 
	C41.154007,45.319042 40.990803,45.581680 40.954277,45.940609 
	C40.954277,45.940609 40.963932,45.955898 40.335587,46.189129 
	C38.890709,47.184399 37.445831,48.179665 35.272438,49.046631 
	C31.830481,50.993008 28.388523,52.939384 24.284807,54.960838 
	C23.237717,55.686474 22.190628,56.412113 20.404808,56.969128 
	C17.958277,58.503937 15.435850,59.931850 13.084754,61.601082 
	C10.256632,63.608994 9.978051,68.807396 12.821497,70.866776 
	C15.641209,72.908966 18.893152,74.354355 22.002102,76.004143 
	C22.002102,76.004143 21.947252,76.052307 22.223152,76.683060 
	C23.806236,77.478737 25.389320,78.274414 26.990799,79.009567 
	C26.990799,79.009567 26.930725,79.029381 27.178909,79.608238 
	C27.773626,79.766335 28.368345,79.924431 29.259932,80.715546 
	C33.508316,83.073349 37.756699,85.431160 42.644829,87.960571 
	C43.083191,88.009239 43.521549,88.057907 44.237000,88.697105 
	C45.482677,89.500984 46.728355,90.304863 48.280499,91.784218 
	C48.156742,93.840103 48.032990,95.895981 47.289909,98.223503 
	C44.847263,100.111885 42.404617,102.000267 39.305561,104.003021 
	C38.866539,104.065414 38.427513,104.127815 37.381336,104.033966 
	C36.912327,104.345131 36.443317,104.656296 35.479565,105.101440 
	C35.317665,105.387512 35.155766,105.673584 34.267693,106.051498 
	C30.512154,108.351540 26.756615,110.651581 22.238537,112.990959 
	C19.163837,114.836510 15.752060,116.296387 13.094450,118.619156 
	C9.230783,121.996033 10.477808,126.994385 15.286517,128.948349 
	C16.463472,129.426590 17.713875,129.724075 19.242510,130.726196 
	C24.658092,134.060837 30.073675,137.395462 35.505692,140.704926 
	C35.505692,140.704926 35.492359,140.734879 35.788361,141.174072 
	C36.202560,141.387344 36.616764,141.600601 37.570099,142.041428 
	C38.057106,142.284943 38.544113,142.528442 39.659946,143.103485 
	C43.090801,144.772369 46.521652,146.441254 50.246414,148.708969 
	C51.793392,149.494141 53.340366,150.279297 55.215588,151.692368 
	C60.818153,155.045792 66.420715,158.399216 72.644943,162.088943 
	C75.091530,163.404037 77.538116,164.719131 80.264427,166.666794 
	C83.181824,168.361435 86.099220,170.056076 89.661346,172.069351 
	C92.441086,173.317307 95.220833,174.565262 98.491302,176.046722 
	C98.713654,176.325394 98.936005,176.604065 99.276436,177.651154 
	C103.964272,180.077164 108.182579,179.352081 112.602562,175.767517 
	C113.428246,175.205399 114.253922,174.643295 115.763779,174.036743 
	C117.192886,173.053848 118.621994,172.070938 120.666855,171.006714 
	C121.134117,170.691452 121.601379,170.376190 122.003067,170.061417 
	C122.003067,170.061417 122.068802,170.082474 122.718735,170.062424 
	C123.475487,169.400406 124.232239,168.738403 125.680222,167.976822 
	C126.822052,167.331528 127.963882,166.686234 129.725189,166.021454 
	C130.180038,165.697845 130.634903,165.374222 131.542694,164.903732 
	C131.837479,164.721909 131.994904,164.458115 132.749115,164.004471 
	C136.518372,161.693893 140.287643,159.383316 144.530746,156.924988 
	C144.841919,156.740280 145.006744,156.467270 145.615234,155.868332 
	C146.420746,155.278473 147.226257,154.688614 148.753067,153.991135 
	C150.181259,153.026428 151.609436,152.061737 153.701248,151.010025 
	C154.469528,150.617371 155.237808,150.224716 156.691681,149.970718 
	C158.142014,149.017090 159.592361,148.063461 161.673279,146.840866 
	C163.463318,145.592941 165.253357,144.345016 167.681168,142.831985 
	C169.738144,139.555038 171.795135,136.278107 174.202591,132.280487 
	C177.245117,124.769547 177.057144,117.581856 172.009476,110.176575 
	C170.351028,108.080902 168.692566,105.985222 166.824936,103.308830 
	C165.882629,102.597008 164.940323,101.885178 163.397171,100.907318 
	C162.628784,100.588631 161.860382,100.269943 160.991318,99.170380 
	C160.681259,97.145920 160.371216,95.121460 160.618744,92.896172 
	C161.113449,92.296425 161.608154,91.696686 162.054245,91.002480 
	C162.054245,91.002480 162.122498,91.085655 162.690491,90.857880 
	C163.482269,89.934166 164.274048,89.010452 165.745010,88.030121 
	C166.978790,86.628082 168.212555,85.226044 169.756775,83.734482 
	C169.756775,83.734482 169.836334,83.421341 170.330856,83.110413 
	C170.582932,82.421143 170.835022,81.731873 171.578735,80.910179 
	C171.757401,80.630653 171.936066,80.351120 172.784760,79.727379 
	C176.303467,71.031647 178.111038,62.380997 172.031189,53.220184 
	C170.054306,50.796326 168.077423,48.372471 165.802963,45.326382 
	C163.867950,44.275139 161.932953,43.223896 159.421326,41.925041 
	C158.613922,41.340691 157.806534,40.756336 156.355743,39.862251 
	C154.915298,39.205013 153.474854,38.547775 151.794312,37.281567 
	C150.536499,36.490768 149.278702,35.699970 147.731552,34.288700 
	C146.163681,33.491024 144.595810,32.693348 142.783432,31.314028 
	C141.852005,30.934566 140.920578,30.555103 139.373718,29.884659 
	C138.266281,29.229155 137.158859,28.573650 136.014206,27.983635 
	C136.014206,27.983635 136.088043,27.968723 135.930359,27.464537 
	C135.626266,27.363577 135.322189,27.262619 134.404190,26.895138 
	C133.610428,26.563961 132.816666,26.232784 131.831757,25.330891 
	C131.201614,24.943542 130.571487,24.556192 129.320435,23.862272 
	C127.899467,23.221029 126.478508,22.579784 125.014435,21.981035 
	C125.014435,21.981035 125.074883,21.979448 124.919037,21.467831 
	C124.621559,21.292862 124.324089,21.117891 124.011269,21.002014 
z"/>
<path fill="#BD81D4" opacity="1.000000" stroke="none" 
	d="
M153.037628,151.097031 
	C151.609436,152.061737 150.181259,153.026428 148.386017,153.570038 
	C148.012634,142.895569 148.005005,132.642166 148.000443,122.388779 
	C147.997467,115.663925 148.120758,108.935349 147.915512,102.216751 
	C147.862000,100.465424 146.790787,98.745186 146.221497,96.656052 
	C146.566269,95.198402 146.876541,94.095375 147.462875,92.875992 
	C147.606842,90.771255 147.334564,88.780670 147.365982,86.794884 
	C147.535828,76.057022 147.825409,65.321014 147.983444,54.583031 
	C148.079941,48.026318 148.013916,41.467205 148.020889,34.909172 
	C149.278702,35.699970 150.536499,36.490768 151.906967,38.061768 
	C152.013123,61.205116 152.005341,83.568268 152.000610,105.931419 
	C151.997910,118.715172 151.950043,131.499298 152.046906,144.282318 
	C152.064133,146.556259 152.691818,148.825577 153.037628,151.097031 
z"/>
<path fill="#C985D3" opacity="1.000000" stroke="none" 
	d="
M153.369446,151.053528 
	C152.691818,148.825577 152.064133,146.556259 152.046906,144.282318 
	C151.950043,131.499298 151.997910,118.715172 152.000610,105.931419 
	C152.005341,83.568268 152.013123,61.205116 152.027008,38.366253 
	C153.474854,38.547775 154.915298,39.205013 156.644455,40.426071 
	C156.622177,43.955662 156.016144,46.924793 156.049850,49.886646 
	C156.221497,64.969589 156.734497,80.050148 156.778015,95.132545 
	C156.808609,105.739021 156.203873,116.345856 156.025345,126.954926 
	C155.897049,134.578583 156.004044,142.206207 156.006073,149.832062 
	C155.237808,150.224716 154.469528,150.617371 153.369446,151.053528 
z"/>
<path fill="#D48AD0" opacity="1.000000" stroke="none" 
	d="
M156.348877,149.901398 
	C156.004044,142.206207 155.897049,134.578583 156.025345,126.954926 
	C156.203873,116.345856 156.808609,105.739021 156.778015,95.132545 
	C156.734497,80.050148 156.221497,64.969589 156.049850,49.886646 
	C156.016144,46.924793 156.622177,43.955662 156.966156,40.580936 
	C157.806534,40.756336 158.613922,41.340691 159.644531,42.380005 
	C160.142731,44.883369 160.675568,46.935009 160.649902,48.979641 
	C160.509064,60.203243 160.081848,71.425446 160.105606,82.647377 
	C160.111572,85.461548 161.415222,88.272972 162.122498,91.085655 
	C162.122498,91.085655 162.054245,91.002480 161.770996,91.114563 
	C161.012222,91.850090 160.536697,92.473549 160.061157,93.097000 
	C160.371216,95.121460 160.681259,97.145920 160.807281,99.870483 
	C160.092239,103.666328 159.088226,106.766426 159.116699,109.857025 
	C159.211639,120.162949 159.630310,130.467316 160.038208,140.767792 
	C160.122314,142.891739 160.695129,144.996338 161.042694,147.109848 
	C159.592361,148.063461 158.142014,149.017090 156.348877,149.901398 
z"/>
<path fill="#3B81F8" opacity="1.000000" stroke="none" 
	d="
M47.974033,91.108734 
	C46.728355,90.304863 45.482677,89.500984 44.024422,88.017967 
	C43.210854,85.300850 42.169098,83.281578 42.081722,81.221809 
	C41.583294,69.471848 41.312248,57.712231 40.963932,45.955898 
	C40.963932,45.955898 40.954277,45.940609 41.146515,45.824364 
	C41.581604,45.531300 41.771873,45.309395 41.909561,45.042404 
	C41.909561,45.042404 41.915924,44.921860 42.238480,44.891483 
	C42.993443,44.581779 43.425854,44.302452 43.858261,44.023121 
	C43.858261,44.023121 43.886906,43.876575 44.291489,43.978096 
	C45.801003,44.377136 46.905937,44.674660 48.033463,45.351646 
	C51.115894,50.222523 50.596493,55.363472 51.147575,60.435524 
	C52.292126,70.969749 48.802399,80.872063 47.974033,91.108734 
z"/>
<path fill="#387BFB" opacity="1.000000" stroke="none" 
	d="
M54.887341,151.064468 
	C53.340366,150.279297 51.793392,149.494141 50.017090,148.082367 
	C47.122097,145.422882 46.461399,142.667938 46.440887,139.426712 
	C46.366081,127.604996 46.032818,115.784309 46.053406,103.963684 
	C46.055130,102.972412 47.969875,101.984467 49.310829,100.944176 
	C51.095249,101.263954 52.564678,101.634537 54.026848,102.473297 
	C54.015026,111.716782 53.929211,120.493156 54.045258,129.266861 
	C54.092762,132.858749 54.576572,136.444885 54.911194,140.341278 
	C54.980583,141.063843 55.000675,141.478760 54.850548,142.150085 
	C55.122334,143.931549 55.564339,145.456604 56.001892,147.348816 
	C55.627411,148.832153 55.257378,149.948303 54.887341,151.064468 
z"/>
<path fill="#3977F6" opacity="1.000000" stroke="none" 
	d="
M54.034111,102.005119 
	C52.564678,101.634537 51.095249,101.263954 49.292786,100.609901 
	C48.609585,99.534912 48.259411,98.743385 47.909237,97.951866 
	C48.032990,95.895981 48.156742,93.840103 48.127266,91.446472 
	C48.802399,80.872063 52.292126,70.969749 51.147575,60.435524 
	C50.596493,55.363472 51.115894,50.222523 48.251488,45.099350 
	C50.042377,43.144459 51.547577,41.688805 53.253086,40.527271 
	C56.301212,38.451347 58.146782,39.014866 57.952049,43.307831 
	C57.688244,43.838024 57.417042,44.005211 56.722031,44.106522 
	C55.481705,45.592861 53.822918,47.010414 53.810734,48.441986 
	C53.708179,60.491116 53.805126,72.545700 54.147079,84.589996 
	C54.188831,86.060570 56.032509,87.479988 57.030327,88.938080 
	C57.019547,88.953056 57.056206,88.953308 57.185814,89.152542 
	C57.515972,89.602791 57.757324,89.805153 58.057323,89.960892 
	C58.075176,89.962921 58.086643,89.996986 58.108253,90.321228 
	C58.414356,93.098915 58.698853,95.552361 58.662197,98.077362 
	C56.905399,99.434311 55.469753,100.719719 54.034111,102.005119 
z"/>
<path fill="#3D84F8" opacity="1.000000" stroke="none" 
	d="
M47.599571,98.087685 
	C48.259411,98.743385 48.609585,99.534912 48.977798,100.660706 
	C47.969875,101.984467 46.055130,102.972412 46.053406,103.963684 
	C46.032818,115.784309 46.366081,127.604996 46.440887,139.426712 
	C46.461399,142.667938 47.122097,145.422882 49.870136,147.782944 
	C46.521652,146.441254 43.090801,144.772369 39.407639,142.600754 
	C39.768581,134.919983 40.691418,127.750732 40.895103,120.561096 
	C41.052174,115.016876 40.306343,109.447075 39.961971,103.888649 
	C42.404617,102.000267 44.847263,100.111885 47.599571,98.087685 
z"/>
<path fill="#4D52EE" opacity="1.000000" stroke="none" 
	d="
M100.954704,11.175098 
	C103.419167,11.421579 105.883629,11.668061 108.662033,12.533035 
	C108.984070,29.952129 109.074516,46.753532 108.911224,63.552467 
	C108.886810,66.064110 107.671730,68.564171 106.840759,71.427002 
	C106.100960,74.272873 105.065460,76.755486 105.033852,79.250816 
	C104.887550,90.800224 105.020126,102.353172 104.983856,113.963531 
	C104.914902,114.022217 104.777321,114.139977 104.528015,113.959053 
	C104.151962,112.994156 103.905090,112.208534 103.915848,111.426453 
	C104.262505,86.236671 104.617561,61.046982 105.013153,35.857933 
	C105.114731,29.390097 105.266449,22.920256 105.569611,16.459524 
	C105.728302,13.077844 104.523766,11.457616 101.004578,11.760181 
	C100.984055,11.565505 100.954704,11.175098 100.954704,11.175098 
z"/>
<path fill="#459BF6" opacity="1.000000" stroke="none" 
	d="
M35.489258,140.730103 
	C30.073675,137.395462 24.658092,134.060837 19.337646,130.115341 
	C19.948164,127.999008 20.642384,126.528397 20.944019,124.981247 
	C21.722286,120.989418 22.327023,116.963768 23.001074,112.951622 
	C26.756615,110.651581 30.512154,108.351540 34.745358,106.296867 
	C35.225872,107.176445 35.471733,108.220825 35.195732,108.384346 
	C29.558172,111.724274 31.423433,117.197678 31.579432,121.922913 
	C31.791876,128.357742 30.385275,135.265640 35.489258,140.730103 
z"/>
<path fill="#635CEC" opacity="1.000000" stroke="none" 
	d="
M115.079605,174.081177 
	C114.253922,174.643295 113.428246,175.205399 112.367004,175.512726 
	C112.421959,169.273819 113.117943,163.276245 112.919937,157.308334 
	C112.485802,144.223175 114.436722,131.076843 112.037804,117.768387 
	C112.728455,117.060303 113.330299,116.632339 114.215622,116.396942 
	C118.181786,117.987885 119.170311,120.733078 118.998283,124.499207 
	C118.529648,134.758530 117.855835,145.043610 118.168480,155.290878 
	C118.370110,161.899582 118.206505,168.154388 115.079605,174.081177 
z"/>
<path fill="#7060E8" opacity="1.000000" stroke="none" 
	d="
M115.421692,174.058960 
	C118.206505,168.154388 118.370110,161.899582 118.168480,155.290878 
	C117.855835,145.043610 118.529648,134.758530 118.998283,124.499207 
	C119.170311,120.733078 118.181786,117.987885 114.549789,116.236328 
	C116.452782,114.936905 118.305069,113.990677 120.470566,113.182114 
	C121.426155,114.976295 122.589592,116.621155 122.626938,118.291183 
	C122.883194,129.751083 123.019043,141.216919 122.951706,152.679428 
	C122.917618,158.481979 122.379211,164.281555 122.068802,170.082474 
	C122.068802,170.082474 122.003067,170.061417 121.745125,170.105240 
	C121.008492,170.462051 120.529793,170.775040 120.051094,171.088028 
	C118.621994,172.070938 117.192886,173.053848 115.421692,174.058960 
z"/>
<path fill="#408EF7" opacity="1.000000" stroke="none" 
	d="
M35.497475,140.717514 
	C30.385275,135.265640 31.791876,128.357742 31.579432,121.922913 
	C31.423433,117.197678 29.558172,111.724274 35.195732,108.384346 
	C35.471733,108.220825 35.225872,107.176445 35.108444,106.250946 
	C35.155766,105.673584 35.317665,105.387512 36.001038,105.002983 
	C37.011173,104.666420 37.499832,104.428314 37.988491,104.190208 
	C38.427513,104.127815 38.866539,104.065414 39.633766,103.945831 
	C40.306343,109.447075 41.052174,115.016876 40.895103,120.561096 
	C40.691418,127.750732 39.768581,134.919983 39.093224,142.434998 
	C38.544113,142.528442 38.057106,142.284943 37.199730,141.681412 
	C36.383694,141.125885 35.938026,140.930389 35.492359,140.734879 
	C35.492359,140.734879 35.505692,140.704926 35.497475,140.717514 
z"/>
<path fill="#886BE2" opacity="1.000000" stroke="none" 
	d="
M129.105713,166.040955 
	C127.963882,166.686234 126.822052,167.331528 125.412857,167.674622 
	C126.019066,165.655441 127.651344,163.936234 127.646271,162.221863 
	C127.605400,148.415375 127.244270,134.609970 127.009178,120.803764 
	C126.947334,117.171890 126.983994,113.538345 127.101776,109.620689 
	C128.153946,108.948776 129.079788,108.561737 130.137665,108.520950 
	C130.846207,111.213272 131.899323,113.554726 131.922134,115.906166 
	C132.074402,131.594833 132.006744,147.285629 132.008499,163.259903 
	C132.009308,163.733490 132.012131,163.922913 132.014969,164.112350 
	C131.994904,164.458115 131.837479,164.721909 131.029144,165.014160 
	C130.045624,165.430038 129.575668,165.735489 129.105713,166.040955 
z"/>
<path fill="#B27DD8" opacity="1.000000" stroke="none" 
	d="
M147.876221,34.598938 
	C148.013916,41.467205 148.079941,48.026318 147.983444,54.583031 
	C147.825409,65.321014 147.535828,76.057022 147.365982,86.794884 
	C147.334564,88.780670 147.606842,90.771255 147.323181,92.576813 
	C145.921387,91.606247 144.935349,90.818512 143.960861,89.611702 
	C143.657578,70.093651 143.342758,50.994659 143.027924,31.895672 
	C144.595810,32.693348 146.163681,33.491024 147.876221,34.598938 
z"/>
<path fill="#5656EC" opacity="1.000000" stroke="none" 
	d="
M111.948990,118.048523 
	C114.436722,131.076843 112.485802,144.223175 112.919937,157.308334 
	C113.117943,163.276245 112.421959,169.273819 112.052513,175.508575 
	C108.182579,179.352081 103.964272,180.077164 99.577499,177.276550 
	C100.598831,176.903137 101.319084,176.904312 102.430511,176.932312 
	C106.096558,177.096268 109.077530,176.335098 109.336624,172.542480 
	C109.598770,168.705185 109.046234,164.819305 109.009949,160.953232 
	C108.890312,148.206131 108.921394,135.456436 108.606293,122.714859 
	C108.583107,121.777534 106.261765,120.897041 105.000870,119.571014 
	C104.921036,117.481255 104.849182,115.810616 104.777321,114.139977 
	C104.777321,114.139977 104.914902,114.022217 105.332672,114.131248 
	C105.890587,118.644646 109.060867,118.116951 111.948990,118.048523 
z"/>
<path fill="#3F8CF8" opacity="1.000000" stroke="none" 
	d="
M40.649757,46.072514 
	C41.312248,57.712231 41.583294,69.471848 42.081722,81.221809 
	C42.169098,83.281578 43.210854,85.300850 43.885876,87.722702 
	C43.521549,88.057907 43.083191,88.009239 42.235016,87.554413 
	C40.910934,86.227737 40.153503,84.997894 39.054928,84.440865 
	C34.567268,82.165398 33.482586,78.521454 33.954762,73.818069 
	C34.777981,65.617859 35.333324,57.390759 36.000954,49.174931 
	C37.445831,48.179665 38.890709,47.184399 40.649757,46.072514 
z"/>
<path fill="#B27CD7" opacity="1.000000" stroke="none" 
	d="
M146.186996,97.010674 
	C146.790787,98.745186 147.862000,100.465424 147.915512,102.216751 
	C148.120758,108.935349 147.997467,115.663925 148.000443,122.388779 
	C148.005005,132.642166 148.012634,142.895569 148.025360,153.623840 
	C147.226257,154.688614 146.420746,155.278473 145.238983,155.578613 
	C144.228165,136.835251 143.593597,118.381599 143.097031,99.629181 
	C144.219009,98.557159 145.203003,97.783913 146.186996,97.010674 
z"/>
<path fill="#9570DF" opacity="1.000000" stroke="none" 
	d="
M132.022903,25.901608 
	C132.816666,26.232784 133.610428,26.563961 134.868317,27.189205 
	C135.563202,27.677944 135.815063,27.839762 136.088043,27.968723 
	C136.088043,27.968723 136.014206,27.983635 136.021713,28.399769 
	C136.351791,43.841171 136.868149,58.866692 136.848740,73.891518 
	C136.844376,77.276031 134.971375,80.658127 133.649948,84.005829 
	C132.874603,83.655525 132.407883,83.340706 131.954315,82.555771 
	C131.978699,72.451195 131.991302,62.816738 132.000854,53.182278 
	C132.009872,44.088722 132.015671,34.995163 132.022903,25.901608 
z"/>
<path fill="#7E67E3" opacity="1.000000" stroke="none" 
	d="
M125.057541,21.938541 
	C126.478508,22.579784 127.899467,23.221029 129.593582,24.319801 
	C129.244186,30.008553 128.290024,35.226406 128.078430,40.474197 
	C127.776672,47.958210 128.158615,55.467419 127.984047,62.959705 
	C127.851402,68.652390 127.306679,74.335472 126.596031,79.987473 
	C124.478386,78.899048 122.710022,77.845963 121.145195,76.524902 
	C122.138023,74.865761 123.557892,73.498795 123.612358,72.079422 
	C123.921936,64.012558 123.573868,55.911930 124.089722,47.863827 
	C124.643570,39.222919 121.690331,30.455347 125.057541,21.938541 
z"/>
<path fill="#2B4DF7" opacity="1.000000" stroke="none" 
	d="
M79.019211,23.991049 
	C82.768799,21.692083 86.518379,19.393118 90.640121,17.305656 
	C91.012268,17.517164 91.031830,17.998344 90.792542,18.236748 
	C88.771500,20.890207 85.567200,23.245541 85.462860,25.731020 
	C85.082153,34.798973 85.736137,43.910366 85.809814,53.224403 
	C85.086548,54.220360 84.553673,54.997303 83.715561,55.790474 
	C82.886932,55.188560 82.363541,54.570427 81.671265,53.747040 
	C80.998672,53.372627 80.494980,53.203468 79.986862,53.026550 
	C79.982445,53.018787 79.965607,53.012806 79.923195,52.740131 
	C79.591942,52.016857 79.303101,51.566254 78.821686,50.947693 
	C78.413284,50.516518 78.197456,50.253300 78.014404,49.579468 
	C78.263153,42.635464 78.519798,36.102684 78.617470,29.567533 
	C78.625229,29.047667 77.532722,28.511358 76.963120,27.735725 
	C76.974693,27.488762 76.997147,26.994802 77.186867,26.855839 
	C77.616760,26.511381 77.820427,26.274496 78.115936,25.754253 
	C78.502594,24.998537 78.760902,24.494793 79.019211,23.991049 
z"/>
<path fill="#7C66E4" opacity="1.000000" stroke="none" 
	d="
M126.975418,109.905563 
	C126.983994,113.538345 126.947334,117.171890 127.009178,120.803764 
	C127.244270,134.609970 127.605400,148.415375 127.646271,162.221863 
	C127.651344,163.936234 126.019066,165.655441 125.067245,167.724396 
	C124.232239,168.738403 123.475487,169.400406 122.393768,170.072449 
	C122.379211,164.281555 122.917618,158.481979 122.951706,152.679428 
	C123.019043,141.216919 122.883194,129.751083 122.626938,118.291183 
	C122.589592,116.621155 121.426155,114.976295 120.513702,112.819946 
	C122.487556,111.515259 124.731491,110.710411 126.975418,109.905563 
z"/>
<path fill="#5756EE" opacity="1.000000" stroke="none" 
	d="
M107.007454,71.069595 
	C107.671730,68.564171 108.886810,66.064110 108.911224,63.552467 
	C109.074516,46.753532 108.984070,29.952129 108.962608,12.699126 
	C109.434181,12.481995 109.919121,12.717266 110.846725,13.233673 
	C111.544891,13.712570 111.827568,13.857193 112.137428,13.948678 
	C112.137428,13.948678 112.528145,14.020314 112.876488,14.262869 
	C113.470665,14.720405 113.750458,14.873165 114.064209,14.963705 
	C114.064209,14.963705 114.000679,14.971711 114.012276,15.340639 
	C114.019058,16.472685 114.014236,17.235804 113.779602,18.343399 
	C113.366478,20.659470 113.030327,22.630585 113.024155,24.602736 
	C112.976837,39.737267 112.993645,54.871998 112.698792,70.067841 
	C111.894615,70.421837 111.382187,70.714676 110.483551,70.994339 
	C109.067383,71.010651 108.037422,71.040115 107.007454,71.069595 
z"/>
<path fill="#A678DA" opacity="1.000000" stroke="none" 
	d="
M142.905670,31.604851 
	C143.342758,50.994659 143.657578,70.093651 143.648651,89.491776 
	C141.869751,88.889412 140.414597,87.987915 139.110260,86.733994 
	C139.174698,83.264206 138.965958,80.144615 139.022598,77.029861 
	C139.306610,61.411095 139.660080,45.793591 139.989136,30.175642 
	C140.920578,30.555103 141.852005,30.934566 142.905670,31.604851 
z"/>
<path fill="#9D76DB" opacity="1.000000" stroke="none" 
	d="
M132.382050,164.058411 
	C132.012131,163.922913 132.009308,163.733490 132.298767,163.086792 
	C136.818695,159.708145 136.317291,155.613785 136.135345,151.110657 
	C135.591568,137.652084 135.719025,124.167236 135.304749,110.701248 
	C135.265778,109.434242 133.254150,108.227913 132.082626,106.624710 
	C134.658325,104.806396 137.309784,103.356766 139.969604,102.369598 
	C139.911301,105.479309 139.777573,108.126854 139.789108,110.773773 
	C139.851700,125.135941 139.862534,139.500076 140.209015,153.855865 
	C140.235626,154.958481 142.716690,156.001831 144.056900,157.072739 
	C140.287643,159.383316 136.518372,161.693893 132.382050,164.058411 
z"/>
<path fill="#7362E6" opacity="1.000000" stroke="none" 
	d="
M125.035988,21.959789 
	C121.690331,30.455347 124.643570,39.222919 124.089722,47.863827 
	C123.573868,55.911930 123.921936,64.012558 123.612358,72.079422 
	C123.557892,73.498795 122.138023,74.865761 120.813957,76.456657 
	C117.841545,75.121643 115.403893,73.586906 113.342484,72.024948 
	C114.473518,71.983818 115.228325,71.969894 116.277588,72.108414 
	C117.729469,72.676918 118.886902,73.092979 120.124268,73.537773 
	C120.124268,69.465591 120.060532,65.861504 120.136581,62.260361 
	C120.339729,52.641491 120.658920,43.024807 120.816917,33.405365 
	C120.888062,29.073412 122.120728,24.408722 118.002602,20.998655 
	C118.000145,20.999897 118.003326,20.995747 118.003464,20.616949 
	C118.002449,19.228045 118.001305,18.217937 118.000168,17.207830 
	C119.461319,18.108368 120.922470,19.008905 122.843002,20.204845 
	C123.529785,20.692064 123.780777,20.845221 124.055367,20.959709 
	C124.055367,20.959709 124.011269,21.002014 124.164902,21.173042 
	C124.536514,21.596504 124.788628,21.808296 125.074883,21.979448 
	C125.074883,21.979448 125.014435,21.981035 125.035988,21.959789 
z"/>
<path fill="#886BE1" opacity="1.000000" stroke="none" 
	d="
M126.945312,80.022827 
	C127.306679,74.335472 127.851402,68.652390 127.984047,62.959705 
	C128.158615,55.467419 127.776672,47.958210 128.078430,40.474197 
	C128.290024,35.226406 129.244186,30.008553 129.904037,24.473087 
	C130.571487,24.556192 131.201614,24.943542 131.927338,25.616249 
	C132.015671,34.995163 132.009872,44.088722 132.000854,53.182278 
	C131.991302,62.816738 131.978699,72.451195 131.644348,82.432899 
	C129.862625,81.861038 128.403961,80.941933 126.945312,80.022827 
z"/>
<path fill="#4595F5" opacity="1.000000" stroke="none" 
	d="
M35.636696,49.110779 
	C35.333324,57.390759 34.777981,65.617859 33.954762,73.818069 
	C33.482586,78.521454 34.567268,82.165398 39.054928,84.440865 
	C40.153503,84.997894 40.910934,86.227737 41.915146,87.468613 
	C37.756699,85.431160 33.508316,83.073349 28.923443,80.169601 
	C28.034876,79.425560 27.482800,79.227470 26.930725,79.029388 
	C26.930725,79.029381 26.990799,79.009567 26.936995,78.718994 
	C26.571718,77.626373 26.260246,76.824318 26.290100,75.893227 
	C28.789619,72.721153 29.056204,59.106220 26.928755,56.288677 
	C26.463947,55.673100 25.617336,55.345814 24.946564,54.885757 
	C28.388523,52.939384 31.830481,50.993008 35.636696,49.110779 
z"/>
<path fill="#A777DA" opacity="1.000000" stroke="none" 
	d="
M144.293823,156.998871 
	C142.716690,156.001831 140.235626,154.958481 140.209015,153.855865 
	C139.862534,139.500076 139.851700,125.135941 139.789108,110.773773 
	C139.777573,108.126854 139.911301,105.479309 140.096344,102.078552 
	C141.129517,100.859352 142.044281,100.393661 142.959045,99.927963 
	C143.593597,118.381599 144.228165,136.835251 144.943954,155.697418 
	C145.006744,156.467270 144.841919,156.740280 144.293823,156.998871 
z"/>
<path fill="#3748F6" opacity="1.000000" stroke="none" 
	d="
M91.031830,17.998344 
	C91.031830,17.998344 91.012268,17.517164 91.003975,17.276665 
	C93.388580,15.350714 95.781471,13.665262 98.808838,11.988998 
	C99.615532,11.992959 99.787758,11.987733 99.980263,12.001583 
	C100.000542,12.020658 100.041771,12.058090 100.035980,12.297430 
	C100.030182,12.536770 100.053497,13.015090 100.124046,13.424932 
	C100.440414,14.965526 100.895309,16.095390 100.900108,17.227163 
	C100.955597,30.306917 101.019798,43.387890 100.861320,56.465866 
	C100.838875,58.318012 99.644257,60.155952 98.687454,61.770523 
	C97.923454,59.848061 97.094376,58.161457 97.067207,56.462029 
	C96.930191,47.891201 97.061676,39.316296 96.955009,30.744614 
	C96.931137,28.825764 96.329643,26.914103 95.994934,24.665100 
	C95.997383,23.885687 95.998978,23.440308 96.160187,22.822090 
	C96.213356,22.100698 96.106926,21.552145 95.994217,20.649670 
	C96.008217,15.922325 92.919113,18.256653 91.031830,17.998344 
z"/>
<path fill="#2F5AF5" opacity="1.000000" stroke="none" 
	d="
M79.984695,166.034241 
	C77.538116,164.719131 75.091530,163.404037 72.239105,161.592163 
	C70.210861,156.047089 68.588455,150.998764 67.178520,145.724213 
	C67.688583,144.728775 67.986183,143.959564 68.502838,143.036346 
	C69.145607,142.596695 69.569321,142.311035 70.288879,141.976242 
	C71.057816,141.591003 71.530907,141.254898 72.000351,140.952286 
	C71.996712,140.985779 71.931526,140.968719 72.221855,140.926300 
	C72.998634,140.581757 73.485085,140.279633 74.097794,139.659027 
	C75.817795,138.546585 77.411522,137.752579 79.144089,137.159851 
	C79.493423,137.613510 79.736336,137.829483 79.772003,138.212646 
	C78.665878,139.850540 77.132523,141.253082 77.062469,142.725250 
	C76.878914,146.582855 77.974335,150.574417 77.368752,154.319977 
	C76.647202,158.782852 77.267181,162.450714 80.124443,165.860596 
	C80.077141,165.917892 79.984695,166.034241 79.984695,166.034241 
z"/>
<path fill="#DE8FCC" opacity="1.000000" stroke="none" 
	d="
M162.406494,90.971771 
	C161.415222,88.272972 160.111572,85.461548 160.105606,82.647377 
	C160.081848,71.425446 160.509064,60.203243 160.649902,48.979641 
	C160.675568,46.935009 160.142731,44.883369 159.932831,42.503807 
	C161.932953,43.223896 163.867950,44.275139 165.635223,45.834244 
	C164.690613,48.678631 163.289948,51.007210 163.260071,53.353249 
	C163.186081,59.162148 163.692123,64.982117 164.073959,70.790489 
	C164.167130,72.207832 164.679367,73.597641 164.999603,75.437576 
	C165.002762,77.916496 165.005249,79.957947 164.788269,82.210007 
	C164.734467,84.309326 164.900146,86.198029 165.065826,88.086739 
	C164.274048,89.010452 163.482269,89.934166 162.406494,90.971771 
z"/>
<path fill="#DD8ECD" opacity="1.000000" stroke="none" 
	d="
M161.357986,146.975357 
	C160.695129,144.996338 160.122314,142.891739 160.038208,140.767792 
	C159.630310,130.467316 159.211639,120.162949 159.116699,109.857025 
	C159.088226,106.766426 160.092239,103.666328 160.857620,100.260925 
	C161.860382,100.269943 162.628784,100.588631 163.620605,101.400368 
	C163.849548,104.338791 163.828308,106.784569 163.865311,109.229469 
	C164.010178,118.802368 164.072815,128.378876 164.442322,137.943359 
	C164.495529,139.320847 166.058823,140.639984 166.953186,142.263885 
	C167.003189,142.726776 167.023300,142.911926 167.043396,143.097076 
	C165.253357,144.345016 163.463318,145.592941 161.357986,146.975357 
z"/>
<path fill="#489FF6" opacity="1.000000" stroke="none" 
	d="
M24.615685,54.923298 
	C25.617336,55.345814 26.463947,55.673100 26.928755,56.288677 
	C29.056204,59.106220 28.789619,72.721153 25.891235,75.889183 
	C24.083117,76.026894 23.015184,76.039604 21.947252,76.052307 
	C21.947252,76.052307 22.002102,76.004143 21.925837,75.687790 
	C17.997957,72.443939 16.847988,68.496780 18.070042,64.003166 
	C18.720095,61.612865 20.095528,59.419827 21.143539,57.137749 
	C22.190628,56.412113 23.237717,55.686474 24.615685,54.923298 
z"/>
<path fill="#3247F3" opacity="1.000000" stroke="none" 
	d="
M98.000572,175.813217 
	C95.220833,174.565262 92.441086,173.317307 89.332932,171.612915 
	C89.008484,170.760208 89.012459,170.363968 89.360535,170.042755 
	C91.468719,170.746674 93.232803,171.375549 95.032227,172.069733 
	C95.067566,172.135056 95.236305,172.146942 95.236305,172.146942 
	C95.236305,172.146942 95.004417,171.996887 95.004372,171.547012 
	C95.004326,157.601318 95.004326,144.105499 95.004326,129.562790 
	C90.756012,132.056839 87.384315,134.036255 83.637032,136.014771 
	C82.510712,136.003281 81.759987,135.992706 81.129845,135.657013 
	C86.497627,132.304382 91.744820,129.276886 96.994171,126.690437 
	C97.331085,143.358749 97.665825,159.585983 98.000572,175.813217 
z"/>
<path fill="#2E58F6" opacity="1.000000" stroke="none" 
	d="
M76.951546,27.982689 
	C77.532722,28.511358 78.625229,29.047667 78.617470,29.567533 
	C78.519798,36.102684 78.263153,42.635464 77.703850,49.431377 
	C68.889687,45.333179 67.062386,40.832813 70.229500,32.771282 
	C70.652916,31.693527 70.062469,30.217459 69.941521,28.925842 
	C69.941521,28.925842 70.001526,28.979301 70.255707,28.922112 
	C70.999596,28.563425 71.489319,28.261929 71.979034,27.960430 
	C72.140305,27.680841 72.301582,27.401255 73.023788,27.201088 
	C74.707001,27.514570 75.829269,27.748629 76.951546,27.982689 
z"/>
<path fill="#3848F5" opacity="1.000000" stroke="none" 
	d="
M98.245941,175.929962 
	C97.665825,159.585983 97.331085,143.358749 97.262932,126.571609 
	C97.986443,125.663666 98.443359,125.315613 99.176849,125.241928 
	C99.967636,127.388748 100.922478,129.260635 100.924911,131.133759 
	C100.941246,143.736954 100.691704,156.340485 100.699966,168.943771 
	C100.701294,170.965179 101.562256,172.986008 102.022896,175.324005 
	C102.026421,176.062439 102.032883,176.483963 102.039345,176.905487 
	C101.319084,176.904312 100.598831,176.903137 99.518463,176.892334 
	C98.936005,176.604065 98.713654,176.325394 98.245941,175.929962 
z"/>
<path fill="#9E76DC" opacity="1.000000" stroke="none" 
	d="
M139.681427,30.030151 
	C139.660080,45.793591 139.306610,61.411095 139.022598,77.029861 
	C138.965958,80.144615 139.174698,83.264206 138.764679,86.692780 
	C136.831726,86.016434 135.395157,85.028885 133.958588,84.041328 
	C134.971375,80.658127 136.844376,77.276031 136.848740,73.891518 
	C136.868149,58.866692 136.351791,43.841171 136.040314,28.367023 
	C137.158859,28.573650 138.266281,29.229155 139.681427,30.030151 
z"/>
<path fill="#EC99C7" opacity="1.000000" stroke="none" 
	d="
M167.362274,142.964539 
	C167.023300,142.911926 167.003189,142.726776 166.828094,141.922211 
	C167.014801,138.590866 167.665039,135.876389 167.642761,133.167435 
	C167.562485,123.407135 167.255478,113.648689 167.034119,103.889549 
	C168.692566,105.985222 170.351028,108.080902 171.851364,110.838882 
	C170.909042,114.098473 169.445923,116.707199 169.489487,119.290535 
	C169.567383,123.909988 170.553436,128.514130 171.205734,133.473526 
	C171.389404,133.440750 172.620758,133.220947 173.852112,133.001160 
	C171.795135,136.278107 169.738144,139.555038 167.362274,142.964539 
z"/>
<path fill="#E692CA" opacity="1.000000" stroke="none" 
	d="
M166.929535,103.599190 
	C167.255478,113.648689 167.562485,123.407135 167.642761,133.167435 
	C167.665039,135.876389 167.014801,138.590866 166.798203,141.644470 
	C166.058823,140.639984 164.495529,139.320847 164.442322,137.943359 
	C164.072815,128.378876 164.010178,118.802368 163.865311,109.229469 
	C163.828308,106.784569 163.849548,104.338791 163.921021,101.533386 
	C164.940323,101.885178 165.882629,102.597008 166.929535,103.599190 
z"/>
<path fill="#54ABF0" opacity="1.000000" stroke="none" 
	d="
M22.619804,112.971291 
	C22.327023,116.963768 21.722286,120.989418 20.944019,124.981247 
	C20.642384,126.528397 19.948164,127.999008 19.181646,129.804565 
	C17.713875,129.724075 16.463472,129.426590 15.286517,128.948349 
	C10.477808,126.994385 9.230783,121.996033 13.094450,118.619156 
	C15.752060,116.296387 19.163837,114.836510 22.619804,112.971291 
z"/>
<path fill="#3562F0" opacity="1.000000" stroke="none" 
	d="
M69.591980,28.971071 
	C70.062469,30.217459 70.652916,31.693527 70.229500,32.771282 
	C67.062386,40.832813 68.889687,45.333179 77.671066,49.841995 
	C78.197456,50.253300 78.413284,50.516518 78.822388,51.216049 
	C79.017570,52.014133 79.019470,52.375904 78.680977,52.677315 
	C72.891563,49.354103 67.442551,46.091251 62.073280,42.468468 
	C61.748985,39.391041 61.344940,36.673534 60.940895,33.956032 
	C60.940895,33.956032 60.988800,34.000755 61.253609,33.952637 
	C62.019398,33.654503 62.520382,33.404488 63.021366,33.154472 
	C65.095062,31.775080 67.168747,30.395691 69.591980,28.971071 
z"/>
<path fill="#E895CB" opacity="1.000000" stroke="none" 
	d="
M164.998932,75.000107 
	C164.679367,73.597641 164.167130,72.207832 164.073959,70.790489 
	C163.692123,64.982117 163.186081,59.162148 163.260071,53.353249 
	C163.289948,51.007210 164.690613,48.678631 165.784012,46.145359 
	C168.077423,48.372471 170.054306,50.796326 171.750824,53.742264 
	C170.646774,55.841148 169.823074,57.417961 168.691742,59.228851 
	C167.922653,61.472691 167.440582,63.477985 167.004562,65.493240 
	C166.319687,68.658661 165.665894,71.830811 164.998932,75.000107 
z"/>
<path fill="#3568F4" opacity="1.000000" stroke="none" 
	d="
M66.966057,145.950470 
	C68.588455,150.998764 70.210861,156.047089 71.928268,161.424026 
	C66.420715,158.399216 60.818153,155.045792 55.051464,151.378418 
	C55.257378,149.948303 55.627411,148.832153 56.358517,147.353912 
	C57.195190,146.984070 57.670795,146.976318 58.351021,146.966110 
	C58.555649,146.963638 58.959549,146.894226 59.222557,147.108856 
	C61.979065,146.865814 64.472565,146.408142 66.966057,145.950470 
z"/>
<path fill="#F39FC5" opacity="1.000000" stroke="none" 
	d="
M168.999390,58.994774 
	C169.823074,57.417961 170.646774,55.841148 171.787872,54.100262 
	C178.111038,62.380997 176.303467,71.031647 172.207581,79.572250 
	C171.380096,74.695465 171.284561,69.958153 170.809647,65.259186 
	C170.594635,63.131794 169.626083,61.080559 168.999390,58.994774 
z"/>
<path fill="#F49EC6" opacity="1.000000" stroke="none" 
	d="
M174.027344,132.640823 
	C172.620758,133.220947 171.389404,133.440750 171.205734,133.473526 
	C170.553436,128.514130 169.567383,123.909988 169.489487,119.290535 
	C169.445923,116.707199 170.909042,114.098473 171.876984,111.188255 
	C177.057144,117.581856 177.245117,124.769547 174.027344,132.640823 
z"/>
<path fill="#EE96C8" opacity="1.000000" stroke="none" 
	d="
M168.691742,59.228851 
	C169.626083,61.080559 170.594635,63.131794 170.809647,65.259186 
	C171.284561,69.958153 171.380096,74.695465 171.872559,79.744354 
	C171.936066,80.351120 171.757401,80.630653 171.031189,81.084290 
	C170.267853,81.979378 170.052094,82.700356 169.836334,83.421341 
	C169.836334,83.421341 169.756775,83.734482 169.254913,83.572601 
	C167.504623,82.940285 166.256180,82.469841 165.007736,81.999397 
	C165.005249,79.957947 165.002762,77.916496 164.999603,75.437576 
	C165.665894,71.830811 166.319687,68.658661 167.004562,65.493240 
	C167.440582,63.477985 167.922653,61.472691 168.691742,59.228851 
z"/>
<path fill="#56AAEE" opacity="1.000000" stroke="none" 
	d="
M20.774174,57.053436 
	C20.095528,59.419827 18.720095,61.612865 18.070042,64.003166 
	C16.847988,68.496780 17.997957,72.443939 21.902548,75.716461 
	C18.893152,74.354355 15.641209,72.908966 12.821497,70.866776 
	C9.978051,68.807396 10.256632,63.608994 13.084754,61.601082 
	C15.435850,59.931850 17.958277,58.503937 20.774174,57.053436 
z"/>
<path fill="#3B70EE" opacity="1.000000" stroke="none" 
	d="
M60.616432,34.092606 
	C61.344940,36.673534 61.748985,39.391041 61.682144,42.545391 
	C60.148727,43.012493 59.086197,43.042747 58.023663,43.072998 
	C58.146782,39.014866 56.301212,38.451347 53.253086,40.527271 
	C51.547577,41.688805 50.042377,43.144459 48.228897,44.719887 
	C46.905937,44.674660 45.801003,44.377136 44.365387,43.988747 
	C49.453793,40.674976 54.872883,37.452076 60.616432,34.092606 
z"/>
<path fill="#E895CB" opacity="1.000000" stroke="none" 
	d="
M164.788269,82.210007 
	C166.256180,82.469841 167.504623,82.940285 169.099701,83.617371 
	C168.212555,85.226044 166.978790,86.628082 165.405426,88.058426 
	C164.900146,86.198029 164.734467,84.309326 164.788269,82.210007 
z"/>
<path fill="#2F5AF5" opacity="1.000000" stroke="none" 
	d="
M89.016434,169.967712 
	C89.012459,170.363968 89.008484,170.760208 89.010559,171.453583 
	C86.099220,170.056076 83.181824,168.361435 80.124557,166.350525 
	C79.984695,166.034241 80.077141,165.917892 80.471558,165.927765 
	C82.242401,166.278885 83.618820,166.620117 85.296936,167.061310 
	C86.737900,168.096725 87.877167,169.032227 89.016434,169.967712 
z"/>
<path fill="#6A5FEA" opacity="1.000000" stroke="none" 
	d="
M117.702744,17.061247 
	C118.001305,18.217937 118.002449,19.228045 117.695267,20.518084 
	C116.261108,19.864985 115.135262,18.931952 114.009415,17.998920 
	C114.014236,17.235804 114.019058,16.472685 114.043869,15.328518 
	C115.177681,15.603200 116.291496,16.258932 117.702744,17.061247 
z"/>
<path fill="#3562F0" opacity="1.000000" stroke="none" 
	d="
M76.963120,27.735725 
	C75.829269,27.748629 74.707001,27.514570 73.266235,27.138538 
	C74.735229,26.023983 76.522713,25.051399 78.664703,24.034931 
	C78.760902,24.494793 78.502594,24.998537 77.928070,25.894842 
	C77.373215,26.493885 77.168312,26.729685 76.997147,26.994802 
	C76.997147,26.994802 76.974693,27.488762 76.963120,27.735725 
z"/>
<path fill="#56AAEE" opacity="1.000000" stroke="none" 
	d="
M22.085201,76.367691 
	C23.015184,76.039604 24.083117,76.026894 25.549911,76.018227 
	C26.260246,76.824318 26.571718,77.626373 26.927797,78.749252 
	C25.389320,78.274414 23.806236,77.478737 22.085201,76.367691 
z"/>
<path fill="#E895CB" opacity="1.000000" stroke="none" 
	d="
M170.083588,83.265877 
	C170.052094,82.700356 170.267853,81.979378 170.785370,81.150505 
	C170.835022,81.731873 170.582932,82.421143 170.083588,83.265877 
z"/>
<path fill="#DE8FCC" opacity="1.000000" stroke="none" 
	d="
M160.339951,92.996582 
	C160.536697,92.473549 161.012222,91.850090 161.795319,91.161789 
	C161.608154,91.696686 161.113449,92.296425 160.339951,92.996582 
z"/>
<path fill="#459BF6" opacity="1.000000" stroke="none" 
	d="
M35.640358,140.954468 
	C35.938026,140.930389 36.383694,141.125885 36.930161,141.567627 
	C36.616764,141.600601 36.202560,141.387344 35.640358,140.954468 
z"/>
<path fill="#7C66E4" opacity="1.000000" stroke="none" 
	d="
M120.358978,171.047363 
	C120.529793,170.775040 121.008492,170.462051 121.777908,170.104996 
	C121.601379,170.376190 121.134117,170.691452 120.358978,171.047363 
z"/>
<path fill="#3562F0" opacity="1.000000" stroke="none" 
	d="
M71.668701,28.000633 
	C71.489319,28.261929 70.999596,28.563425 70.218277,28.907784 
	C70.403900,28.647375 70.881142,28.344105 71.668701,28.000633 
z"/>
<path fill="#3B70EE" opacity="1.000000" stroke="none" 
	d="
M62.711411,33.077457 
	C62.520382,33.404488 62.019398,33.654503 61.234364,33.928066 
	C61.434029,33.634556 61.917744,33.317497 62.711411,33.077457 
z"/>
<path fill="#459BF6" opacity="1.000000" stroke="none" 
	d="
M37.684914,104.112091 
	C37.499832,104.428314 37.011173,104.666420 36.248405,104.935989 
	C36.443317,104.656296 36.912327,104.345131 37.684914,104.112091 
z"/>
<path fill="#936FE0" opacity="1.000000" stroke="none" 
	d="
M129.415451,166.031189 
	C129.575668,165.735489 130.045624,165.430038 130.802673,165.087585 
	C130.634903,165.374222 130.180038,165.697845 129.415451,166.031189 
z"/>
<path fill="#3B70EE" opacity="1.000000" stroke="none" 
	d="
M43.571030,44.013763 
	C43.425854,44.302452 42.993443,44.581779 42.298828,44.892101 
	C42.452351,44.616863 42.868073,44.310635 43.571030,44.013763 
z"/>
<path fill="#56AAEE" opacity="1.000000" stroke="none" 
	d="
M27.054817,79.318817 
	C27.482800,79.227470 28.034876,79.425560 28.775007,79.853088 
	C28.368345,79.924431 27.773626,79.766335 27.054817,79.318817 
z"/>
<path fill="#4D52EE" opacity="1.000000" stroke="none" 
	d="
M99.959984,11.982507 
	C99.787758,11.987733 99.615532,11.992959 99.185150,11.983722 
	C99.128952,11.704591 99.330917,11.439923 99.772629,11.379135 
	C100.012367,11.583015 99.959984,11.982507 99.959984,11.982507 
z"/>
<path fill="#404CF5" opacity="1.000000" stroke="none" 
	d="
M99.980263,12.001583 
	C99.959984,11.982507 100.012367,11.583015 100.027924,11.381766 
	C100.043472,11.180517 100.500366,11.019152 100.727539,11.097125 
	C100.954704,11.175098 100.984055,11.565505 100.980820,11.782617 
	C100.977592,11.999728 100.927811,12.041408 100.706078,12.033838 
	C100.484344,12.026269 100.041771,12.058090 100.041771,12.058090 
	C100.041771,12.058090 100.000542,12.020658 99.980263,12.001583 
z"/>
<path fill="#6A5FEA" opacity="1.000000" stroke="none" 
	d="
M112.042694,13.679812 
	C111.827568,13.857193 111.544891,13.712570 111.119522,13.345086 
	C111.282417,13.253892 111.615189,13.332419 112.042694,13.679812 
z"/>
<path fill="#6A5FEA" opacity="1.000000" stroke="none" 
	d="
M113.997299,14.681316 
	C113.750458,14.873165 113.470665,14.720405 113.065491,14.323896 
	C113.247559,14.227888 113.588974,14.313408 113.997299,14.681316 
z"/>
<path fill="#3B70EE" opacity="1.000000" stroke="none" 
	d="
M41.675865,45.088249 
	C41.771873,45.309395 41.581604,45.531300 41.145653,45.815063 
	C40.990803,45.581680 41.154007,45.319042 41.675865,45.088249 
z"/>
<path fill="#7E67E3" opacity="1.000000" stroke="none" 
	d="
M123.984375,20.704819 
	C123.780777,20.845221 123.529785,20.692064 123.148544,20.341206 
	C123.300934,20.271423 123.607155,20.360676 123.984375,20.704819 
z"/>
<path fill="#9E76DC" opacity="1.000000" stroke="none" 
	d="
M136.009201,27.716629 
	C135.815063,27.839762 135.563202,27.677944 135.175262,27.322464 
	C135.322189,27.262619 135.626266,27.363577 136.009201,27.716629 
z"/>
<path fill="#7E67E3" opacity="1.000000" stroke="none" 
	d="
M124.996964,21.723640 
	C124.788628,21.808296 124.536514,21.596504 124.172577,21.143497 
	C124.324089,21.117891 124.621559,21.292862 124.996964,21.723640 
z"/>
<path fill="#000000" opacity="1.000000" stroke="none" 
	d="
M133.649948,84.005829 
	C135.395157,85.028885 136.831726,86.016434 138.613876,87.045212 
	C140.414597,87.987915 141.869751,88.889412 143.637115,89.910843 
	C144.935349,90.818512 145.921387,91.606247 147.047104,92.693169 
	C146.876541,94.095375 146.566269,95.198402 146.221497,96.656052 
	C145.203003,97.783913 144.219009,98.557159 143.097031,99.629181 
	C142.044281,100.393661 141.129517,100.859352 140.087982,101.616096 
	C137.309784,103.356766 134.658325,104.806396 131.938812,106.923752 
	C131.249039,107.785896 130.627319,107.980301 130.005615,108.174698 
	C129.079788,108.561737 128.153946,108.948776 127.101776,109.620689 
	C124.731491,110.710411 122.487556,111.515259 120.200493,112.682281 
	C118.305069,113.990677 116.452782,114.936905 114.266312,116.043755 
	C113.330299,116.632339 112.728455,117.060303 112.037804,117.768387 
	C109.060867,118.116951 105.890587,118.644646 105.401627,114.072563 
	C105.020126,102.353172 104.887550,90.800224 105.033852,79.250816 
	C105.065460,76.755486 106.100960,74.272873 106.840759,71.427002 
	C108.037422,71.040115 109.067383,71.010651 110.603836,71.296112 
	C111.718422,71.746140 112.326508,71.881241 112.944878,72.022415 
	C112.955154,72.028481 112.966248,72.052162 112.966248,72.052162 
	C115.403893,73.586906 117.841545,75.121643 120.610428,76.724632 
	C122.710022,77.845963 124.478386,78.899048 126.596024,79.987473 
	C128.403961,80.941933 129.862625,81.861038 131.631226,82.903015 
	C132.407883,83.340706 132.874603,83.655525 133.649948,84.005829 
z"/>
<path fill="#4472E0" opacity="1.000000" stroke="none" 
	d="
M54.026848,102.473297 
	C55.469753,100.719719 56.905399,99.434311 59.037109,98.086899 
	C60.835697,98.745667 61.938225,99.466461 62.631180,100.131485 
	C58.740681,99.114830 57.157158,101.158371 55.805687,104.302826 
	C55.369049,106.440460 55.040970,108.242348 55.023685,110.047203 
	C54.927963,120.042274 54.907887,130.038071 54.861900,140.033630 
	C54.576572,136.444885 54.092762,132.858749 54.045258,129.266861 
	C53.929211,120.493156 54.015026,111.716782 54.026848,102.473297 
z"/>
<path fill="#86A6E8" opacity="1.000000" stroke="none" 
	d="
M54.911194,140.341278 
	C54.907887,130.038071 54.927963,120.042274 55.023685,110.047203 
	C55.040970,108.242348 55.369049,106.440460 55.771004,104.774269 
	C55.928604,117.301033 55.868839,129.690735 55.611237,142.036957 
	C55.413403,141.993469 55.020767,141.893677 55.020767,141.893677 
	C55.000675,141.478760 54.980583,141.063843 54.911194,140.341278 
z"/>
<path fill="#4472E0" opacity="1.000000" stroke="none" 
	d="
M54.850548,142.150085 
	C55.020767,141.893677 55.413403,141.993469 55.695469,142.368896 
	C56.700489,144.152405 57.423443,145.560501 58.146397,146.968582 
	C57.670795,146.976318 57.195190,146.984070 56.362968,146.986740 
	C55.564339,145.456604 55.122334,143.931549 54.850548,142.150085 
z"/>
<path fill="#000000" opacity="1.000000" stroke="none" 
	d="
M57.952049,43.307835 
	C59.086197,43.042747 60.148727,43.012493 61.602398,42.905319 
	C67.442551,46.091251 72.891563,49.354103 78.907082,52.779793 
	C79.473579,52.942631 79.965607,53.012806 79.965607,53.012806 
	C79.965607,53.012806 79.982445,53.018787 80.094856,53.298046 
	C80.751564,53.702301 81.295853,53.827293 81.840149,53.952290 
	C82.363541,54.570427 82.886932,55.188560 84.039566,55.940140 
	C87.451279,57.663177 90.092926,59.623981 93.052521,60.746632 
	C96.600227,62.092369 98.299690,64.262177 98.104591,68.215027 
	C97.978996,68.630569 97.940315,68.800133 97.587387,69.111366 
	C93.181129,71.830055 89.089127,74.407066 84.657387,77.015388 
	C83.219421,77.699318 82.121193,78.351944 80.759369,79.079147 
	C80.328552,79.465355 80.161339,79.776985 79.629227,80.105255 
	C76.170631,82.075989 73.076920,84.030067 69.675629,86.017334 
	C68.904053,86.357918 68.440063,86.665321 67.986435,86.985489 
	C67.996803,86.998245 67.971695,86.975174 67.600677,87.017700 
	C64.181992,88.039139 61.134319,89.018066 58.086643,89.996986 
	C58.086643,89.996986 58.075176,89.962921 57.996532,89.710022 
	C57.630661,89.289185 57.343433,89.121246 57.056206,88.953308 
	C57.056206,88.953308 57.019547,88.953056 57.007919,88.594978 
	C56.588783,87.207710 56.181278,86.178528 55.860001,84.670975 
	C55.893730,72.072464 55.841240,59.952328 55.961712,47.533997 
	C56.445393,46.171944 56.756111,45.108089 57.066826,44.044235 
	C57.417042,44.005211 57.688244,43.838024 57.952049,43.307835 
z"/>
<path fill="#3465F1" opacity="1.000000" stroke="none" 
	d="
M58.108253,90.321228 
	C61.134319,89.018066 64.181992,88.039139 67.634438,87.409851 
	C68.221527,89.366653 68.883003,91.100845 68.496887,92.557312 
	C67.309891,97.034843 68.151161,100.537430 72.110420,103.232254 
	C72.955872,103.807709 73.332314,105.072212 73.563515,105.996658 
	C69.815048,104.045105 66.427902,102.116173 63.040749,100.187248 
	C61.938225,99.466461 60.835697,98.745667 59.358261,98.015350 
	C58.698853,95.552361 58.414356,93.098915 58.108253,90.321228 
z"/>
<path fill="#3B70EE" opacity="1.000000" stroke="none" 
	d="
M56.722031,44.106522 
	C56.756111,45.108089 56.445393,46.171944 55.739540,47.903229 
	C55.219578,55.676868 54.961956,62.784065 55.014683,69.888954 
	C55.052448,74.977348 55.505825,80.062653 55.773773,85.149338 
	C56.181278,86.178528 56.588783,87.207710 57.018700,88.580002 
	C56.032509,87.479988 54.188831,86.060570 54.147079,84.589996 
	C53.805126,72.545700 53.708179,60.491116 53.810734,48.441986 
	C53.822918,47.010414 55.481705,45.592861 56.722031,44.106522 
z"/>
<path fill="#3B70EE" opacity="1.000000" stroke="none" 
	d="
M57.185814,89.152542 
	C57.343433,89.121246 57.630661,89.289185 57.978680,89.707993 
	C57.757324,89.805153 57.515972,89.602791 57.185814,89.152542 
z"/>
<path fill="#404CF5" opacity="1.000000" stroke="none" 
	d="
M97.901642,68.969688 
	C97.940315,68.800133 97.978996,68.630569 98.399292,68.092697 
	C98.851334,65.816422 98.921753,63.908443 98.992172,62.000469 
	C99.644257,60.155952 100.838875,58.318012 100.861320,56.465866 
	C101.019798,43.387890 100.955597,30.306917 100.900108,17.227163 
	C100.895309,16.095390 100.440414,14.965526 100.292786,13.284493 
	C100.609032,12.533592 100.787979,12.302657 100.927811,12.041408 
	C100.927811,12.041408 100.977592,11.999728 101.001343,11.977293 
	C104.523766,11.457616 105.728302,13.077844 105.569611,16.459524 
	C105.266449,22.920256 105.114731,29.390097 105.013153,35.857933 
	C104.617561,61.046982 104.262505,86.236671 103.915848,111.426453 
	C103.905090,112.208534 104.151962,112.994156 104.528015,113.959053 
	C104.849182,115.810616 104.921036,117.481255 104.998199,120.040771 
	C104.968880,137.170685 105.023384,153.413086 104.773911,169.650803 
	C104.746269,171.449890 102.983749,173.222321 102.025818,175.007111 
	C101.562256,172.986008 100.701294,170.965179 100.699966,168.943771 
	C100.691704,156.340485 100.941246,143.736954 100.924911,131.133759 
	C100.922478,129.260635 99.967636,127.388748 99.222290,124.876389 
	C98.647705,122.852463 98.304253,121.468445 98.005882,119.690529 
	C98.699837,115.934425 99.773247,112.589325 99.909637,109.206444 
	C100.198120,102.051460 100.267662,94.863419 99.915657,87.714111 
	C99.607132,81.448112 98.600113,75.216492 97.901642,68.969688 
M101.472755,116.498131 
	C101.472755,116.498131 101.512970,116.482735 101.472755,116.498131 
z"/>
<path fill="#936FE0" opacity="1.000000" stroke="none" 
	d="
M130.137665,108.520950 
	C130.627319,107.980301 131.249039,107.785896 132.014557,107.292450 
	C133.254150,108.227913 135.265778,109.434242 135.304749,110.701248 
	C135.719025,124.167236 135.591568,137.652084 136.135345,151.110657 
	C136.317291,155.613785 136.818695,159.708145 132.300751,162.802643 
	C132.006744,147.285629 132.074402,131.594833 131.922134,115.906166 
	C131.899323,113.554726 130.846207,111.213272 130.137665,108.520950 
z"/>
<path fill="#4C51F5" opacity="1.000000" stroke="none" 
	d="
M102.022888,175.324005 
	C102.983749,173.222321 104.746269,171.449890 104.773911,169.650803 
	C105.023384,153.413086 104.968880,137.170685 105.006180,120.459892 
	C106.261765,120.897041 108.583107,121.777534 108.606293,122.714859 
	C108.921394,135.456436 108.890312,148.206131 109.009949,160.953232 
	C109.046234,164.819305 109.598770,168.705185 109.336624,172.542480 
	C109.077530,176.335098 106.096558,177.096268 102.430511,176.932312 
	C102.032883,176.483963 102.026421,176.062439 102.022888,175.324005 
z"/>
<path fill="#2543FB" opacity="1.000000" stroke="none" 
	d="
M90.792542,18.236748 
	C92.919113,18.256653 96.008217,15.922325 95.834442,20.822647 
	C95.787491,21.898006 95.894035,22.446466 96.000580,22.994926 
	C95.998978,23.440308 95.997383,23.885687 95.669647,24.794361 
	C95.023773,25.958376 94.416718,26.663845 94.428223,27.359085 
	C94.560173,35.337818 94.898193,43.314785 94.912750,51.292717 
	C94.916664,53.440136 94.013664,55.589207 93.190536,59.222572 
	C90.049728,56.506840 88.024971,54.756115 86.000221,53.005386 
	C85.736137,43.910366 85.082153,34.798973 85.462860,25.731020 
	C85.567200,23.245541 88.771500,20.890207 90.792542,18.236748 
z"/>
<path fill="#2F45F5" opacity="1.000000" stroke="none" 
	d="
M85.809814,53.224403 
	C88.024971,54.756115 90.049728,56.506840 93.190536,59.222572 
	C94.013664,55.589207 94.916664,53.440136 94.912750,51.292717 
	C94.898193,43.314785 94.560173,35.337818 94.428223,27.359085 
	C94.416718,26.663845 95.023773,25.958376 95.668793,25.128395 
	C96.329643,26.914103 96.931137,28.825764 96.955009,30.744614 
	C97.061676,39.316296 96.930191,47.891201 97.067207,56.462029 
	C97.094376,58.161457 97.923454,59.848061 98.687454,61.770523 
	C98.921753,63.908443 98.851334,65.816422 98.486206,67.846725 
	C98.299690,64.262177 96.600227,62.092369 93.052521,60.746632 
	C90.092926,59.623981 87.451279,57.663177 84.344810,55.923912 
	C84.553673,54.997303 85.086548,54.220360 85.809814,53.224403 
z"/>
<path fill="#2E58F6" opacity="1.000000" stroke="none" 
	d="
M81.671265,53.747040 
	C81.295853,53.827293 80.751564,53.702301 80.099274,53.305809 
	C80.494980,53.203468 80.998672,53.372627 81.671265,53.747040 
z"/>
<path fill="#2E58F6" opacity="1.000000" stroke="none" 
	d="
M79.923195,52.740131 
	C79.965607,53.012806 79.473579,52.942631 79.247475,52.840157 
	C79.019470,52.375904 79.017570,52.014133 79.014961,51.384007 
	C79.303101,51.566254 79.591942,52.016857 79.923195,52.740131 
z"/>
<path fill="#2E58F6" opacity="1.000000" stroke="none" 
	d="
M77.186867,26.855839 
	C77.168312,26.729685 77.373215,26.493885 77.799713,26.146814 
	C77.820427,26.274496 77.616760,26.511381 77.186867,26.855839 
z"/>
<path fill="#605AEE" opacity="1.000000" stroke="none" 
	d="
M113.779602,18.343397 
	C115.135262,18.931952 116.261108,19.864985 117.695137,20.896881 
	C118.003326,20.995747 118.000145,20.999897 117.929939,21.334341 
	C114.299957,24.918804 117.128769,28.697306 117.022659,32.220985 
	C116.623848,45.464409 116.321571,58.710732 115.983131,71.955978 
	C115.228325,71.969894 114.473518,71.983818 113.342484,72.024948 
	C112.966248,72.052162 112.955154,72.028481 112.969078,71.688034 
	C112.985512,70.900612 112.988029,70.453636 112.990540,70.006668 
	C112.993645,54.871998 112.976837,39.737267 113.024155,24.602736 
	C113.030327,22.630585 113.366478,20.659470 113.779602,18.343397 
z"/>
<path fill="#6A5FEA" opacity="1.000000" stroke="none" 
	d="
M112.698792,70.067841 
	C112.988029,70.453636 112.985512,70.900612 112.958801,71.681961 
	C112.326508,71.881241 111.718422,71.746140 110.990036,71.309273 
	C111.382187,70.714676 111.894615,70.421837 112.698792,70.067841 
z"/>
<path fill="#6A5FEA" opacity="1.000000" stroke="none" 
	d="
M116.277588,72.108414 
	C116.321571,58.710732 116.623848,45.464409 117.022659,32.220985 
	C117.128769,28.697306 114.299957,24.918804 117.932396,21.333099 
	C122.120728,24.408722 120.888062,29.073412 120.816917,33.405365 
	C120.658920,43.024807 120.339729,52.641491 120.136581,62.260361 
	C120.060532,65.861504 120.124268,69.465591 120.124268,73.537773 
	C118.886902,73.092979 117.729469,72.676918 116.277588,72.108414 
z"/>
<path fill="#2F45F5" opacity="1.000000" stroke="none" 
	d="
M96.160187,22.822090 
	C95.894035,22.446466 95.787491,21.898006 95.840721,21.176567 
	C96.106926,21.552145 96.213356,22.100698 96.160187,22.822090 
z"/>
<path fill="#4D52EE" opacity="1.000000" stroke="none" 
	d="
M100.706078,12.033838 
	C100.787979,12.302657 100.609032,12.533592 100.222229,12.874651 
	C100.053497,13.015090 100.030182,12.536770 100.035980,12.297430 
	C100.041771,12.058090 100.484344,12.026269 100.706078,12.033838 
z"/>
<path fill="#000000" opacity="1.000000" stroke="none" 
	d="
M97.960800,120.084419 
	C98.304253,121.468445 98.647705,122.852463 98.945724,124.602028 
	C98.443359,125.315613 97.986443,125.663666 97.260757,126.130539 
	C91.744820,129.276886 86.497627,132.304382 81.117081,135.661407 
	C80.983734,135.990906 80.980957,136.015671 80.679764,136.046997 
	C79.920799,136.371750 79.463028,136.665176 79.005257,136.958588 
	C77.411522,137.752579 75.817795,138.546585 73.790787,139.698639 
	C72.882187,140.360718 72.406860,140.664719 71.931534,140.968719 
	C71.931526,140.968719 71.996712,140.985779 71.688202,140.983307 
	C70.917465,141.329010 70.455246,141.677185 69.993027,142.025375 
	C69.569321,142.311035 69.145607,142.596695 68.121048,142.917068 
	C64.666656,144.265945 61.813103,145.580078 58.959549,146.894226 
	C58.959549,146.894226 58.555649,146.963638 58.351021,146.966110 
	C57.423443,145.560501 56.700489,144.152405 55.893303,142.412384 
	C55.868839,129.690735 55.928604,117.301033 56.023052,104.439896 
	C57.157158,101.158371 58.740681,99.114830 62.631180,100.131485 
	C66.427902,102.116173 69.815048,104.045105 73.577835,106.010132 
	C73.953468,106.046234 73.989235,106.054222 74.109329,106.352310 
	C75.493126,107.354118 76.756836,108.057846 78.313469,108.909416 
	C79.384865,109.368851 80.163330,109.680443 80.951004,110.018204 
	C80.960197,110.044357 81.015053,110.052582 81.142746,110.365860 
	C82.858948,111.380440 84.447464,112.081741 86.325790,112.934845 
	C87.385765,113.403023 88.155914,113.719414 89.070526,114.350906 
	C92.130257,116.472153 95.045532,118.278290 97.960800,120.084419 
z"/>
<path fill="#2A4EF8" opacity="1.000000" stroke="none" 
	d="
M84.995239,166.961365 
	C83.618820,166.620117 82.242401,166.278885 80.518860,165.870483 
	C77.267181,162.450714 76.647202,158.782852 77.368752,154.319977 
	C77.974335,150.574417 76.878914,146.582855 77.062469,142.725250 
	C77.132523,141.253082 78.665878,139.850540 79.965302,138.004089 
	C80.592484,137.066498 80.786720,136.541092 80.980957,136.015671 
	C80.980957,136.015671 80.983734,135.990906 80.996490,135.986511 
	C81.759987,135.992706 82.510712,136.003281 83.715843,136.422943 
	C84.445244,146.875153 84.720245,156.918243 84.995239,166.961365 
z"/>
<path fill="#4472E0" opacity="1.000000" stroke="none" 
	d="
M59.222557,147.108856 
	C61.813103,145.580078 64.666656,144.265945 67.901993,143.071075 
	C67.986183,143.959564 67.688583,144.728775 67.178520,145.724213 
	C64.472565,146.408142 61.979065,146.865814 59.222557,147.108856 
z"/>
<path fill="#3247F3" opacity="1.000000" stroke="none" 
	d="
M80.679764,136.046997 
	C80.786720,136.541092 80.592484,137.066498 80.204948,137.800476 
	C79.736336,137.829483 79.493423,137.613510 79.144089,137.159851 
	C79.463028,136.665176 79.920799,136.371750 80.679764,136.046997 
z"/>
<path fill="#4472E0" opacity="1.000000" stroke="none" 
	d="
M72.221863,140.926315 
	C72.406860,140.664719 72.882187,140.360718 73.664520,140.017105 
	C73.485085,140.279633 72.998634,140.581757 72.221863,140.926315 
z"/>
<path fill="#4472E0" opacity="1.000000" stroke="none" 
	d="
M70.288879,141.976242 
	C70.455246,141.677185 70.917465,141.329010 71.691841,140.949814 
	C71.530907,141.254898 71.057816,141.591003 70.288879,141.976242 
z"/>
<path fill="#2644FB" opacity="1.000000" stroke="none" 
	d="
M85.296936,167.061295 
	C84.720245,156.918243 84.445244,146.875153 84.091431,136.423859 
	C87.384315,134.036255 90.756012,132.056839 95.004326,129.562790 
	C95.004326,144.105499 95.004326,157.601318 95.002167,171.548569 
	C95.000000,172.000000 94.996880,172.004425 94.996880,172.004425 
	C93.232803,171.375549 91.468719,170.746674 89.360535,170.042755 
	C87.877167,169.032227 86.737900,168.096725 85.296936,167.061295 
z"/>
<path fill="#2644FB" opacity="1.000000" stroke="none" 
	d="
M95.002213,171.998444 
	C95.004417,171.996887 95.236305,172.146942 95.236305,172.146942 
	C95.236305,172.146942 95.067566,172.135056 95.032227,172.069733 
	C94.996880,172.004425 95.000000,172.000000 95.002213,171.998444 
z"/>
<path fill="#3247F5" opacity="1.000000" stroke="none" 
	d="
M98.005882,119.690529 
	C95.045532,118.278290 92.130257,116.472153 89.482918,114.341476 
	C92.626083,114.301613 94.130371,112.998650 94.216377,110.112724 
	C94.485168,101.093529 94.904099,92.073875 94.901810,83.054489 
	C94.901115,80.314545 93.722984,77.574905 93.134521,75.051239 
	C89.807518,75.915688 87.445404,76.529434 85.058212,77.105316 
	C85.033119,77.067467 84.997124,76.984077 84.997124,76.984085 
	C89.089127,74.407066 93.181129,71.830055 97.587387,69.111366 
	C98.600113,75.216492 99.607132,81.448112 99.915657,87.714111 
	C100.267662,94.863419 100.198120,102.051460 99.909637,109.206444 
	C99.773247,112.589325 98.699837,115.934425 98.005882,119.690529 
z"/>
<path fill="#2A4DF9" opacity="1.000000" stroke="none" 
	d="
M79.994118,80.088608 
	C80.161339,79.776985 80.328552,79.465355 81.134842,79.083992 
	C82.525131,79.015358 83.276367,79.016464 84.275833,79.308823 
	C85.008057,80.780167 85.897820,81.955505 85.911682,83.141098 
	C86.020294,92.426094 85.960930,101.713058 85.600563,110.929657 
	C83.836853,110.590790 82.425949,110.321686 81.015053,110.052582 
	C81.015053,110.052582 80.960197,110.044357 80.903976,109.659431 
	C79.308273,104.457901 75.499847,99.894127 79.209450,94.484833 
	C79.370499,94.249992 79.453911,93.726784 79.311348,93.553162 
	C75.446182,88.845863 79.682968,84.566086 79.994118,80.088608 
z"/>
<path fill="#2F59F5" opacity="1.000000" stroke="none" 
	d="
M79.629227,80.105255 
	C79.682968,84.566086 75.446182,88.845863 79.311348,93.553162 
	C79.453911,93.726784 79.370499,94.249992 79.209450,94.484833 
	C75.499847,99.894127 79.308273,104.457901 80.894783,109.633270 
	C80.163330,109.680443 79.384865,109.368851 78.218277,108.588257 
	C76.549850,107.430908 75.269539,106.742569 73.989235,106.054222 
	C73.989235,106.054222 73.953468,106.046234 73.939148,106.032761 
	C73.332314,105.072212 72.955872,103.807709 72.110420,103.232254 
	C68.151161,100.537430 67.309891,97.034843 68.496887,92.557312 
	C68.883003,91.100845 68.221527,89.366653 68.005447,87.367332 
	C67.971695,86.975174 67.996803,86.998245 68.270760,86.938095 
	C69.024216,86.580009 69.503716,86.282074 69.983215,85.984146 
	C73.076920,84.030067 76.170631,82.075989 79.629227,80.105255 
z"/>
<path fill="#88A6E8" opacity="1.000000" stroke="none" 
	d="
M55.860001,84.670975 
	C55.505825,80.062653 55.052448,74.977348 55.014683,69.888954 
	C54.961956,62.784065 55.219578,55.676868 55.566574,48.201424 
	C55.841240,59.952328 55.893730,72.072464 55.860001,84.670975 
z"/>
<path fill="#2F59F5" opacity="1.000000" stroke="none" 
	d="
M84.027588,79.017563 
	C83.276367,79.016464 82.525131,79.015358 81.398438,79.009415 
	C82.121193,78.351944 83.219421,77.699318 84.657387,77.015381 
	C84.997124,76.984077 85.033119,77.067467 84.927368,77.339767 
	C84.556946,78.080566 84.292267,78.549065 84.027588,79.017563 
z"/>
<path fill="#3465F1" opacity="1.000000" stroke="none" 
	d="
M69.675629,86.017334 
	C69.503716,86.282074 69.024216,86.580009 68.260391,86.925331 
	C68.440063,86.665321 68.904053,86.357918 69.675629,86.017334 
z"/>
<path fill="#3247F5" opacity="1.000000" stroke="none" 
	d="
M101.492859,116.490433 
	C101.512970,116.482735 101.472755,116.498131 101.492859,116.490433 
z"/>
<path fill="#2543FB" opacity="1.000000" stroke="none" 
	d="
M84.275833,79.308823 
	C84.292267,78.549065 84.556946,78.080566 84.952461,77.377617 
	C87.445404,76.529434 89.807518,75.915688 93.134521,75.051239 
	C93.722984,77.574905 94.901115,80.314545 94.901810,83.054489 
	C94.904099,92.073875 94.485168,101.093529 94.216377,110.112724 
	C94.130371,112.998650 92.626083,114.301613 89.338455,114.026360 
	C88.155914,113.719414 87.385765,113.403023 86.315491,112.637444 
	C85.994705,111.791977 85.974037,111.395691 85.953377,110.999413 
	C85.960930,101.713058 86.020294,92.426094 85.911682,83.141098 
	C85.897820,81.955505 85.008057,80.780167 84.275833,79.308823 
z"/>
<path fill="#2F59F5" opacity="1.000000" stroke="none" 
	d="
M85.600563,110.929657 
	C85.974037,111.395691 85.994705,111.791977 86.025665,112.485657 
	C84.447464,112.081741 82.858948,111.380440 81.142746,110.365860 
	C82.425949,110.321686 83.836853,110.590790 85.600563,110.929657 
z"/>
<path fill="#3465F1" opacity="1.000000" stroke="none" 
	d="
M74.109329,106.352310 
	C75.269539,106.742569 76.549850,107.430908 77.925354,108.440414 
	C76.756836,108.057846 75.493126,107.354118 74.109329,106.352310 
z"/>
</svg>