<svg id="visual" viewBox="0 0 900 600" width="900" height="600" xmlns="http://www.w3.org/2000/svg" xmlns:xlink="http://www.w3.org/1999/xlink" version="1.1"><path d="M0 43L13.7 55C27.3 67 54.7 91 82 92C109.3 93 136.7 71 163.8 65C191 59 218 69 245.2 74C272.3 79 299.7 79 327 83C354.3 87 381.7 95 409 90C436.3 85 463.7 67 491 66C518.3 65 545.7 81 573 86C600.3 91 627.7 85 654.8 78C682 71 709 63 736.2 66C763.3 69 790.7 83 818 94C845.3 105 872.7 113 886.3 117L900 121L900 0L886.3 0C872.7 0 845.3 0 818 0C790.7 0 763.3 0 736.2 0C709 0 682 0 654.8 0C627.7 0 600.3 0 573 0C545.7 0 518.3 0 491 0C463.7 0 436.3 0 409 0C381.7 0 354.3 0 327 0C299.7 0 272.3 0 245.2 0C218 0 191 0 163.8 0C136.7 0 109.3 0 82 0C54.7 0 27.3 0 13.7 0L0 0Z" fill="#a1bef5"></path><path d="M0 199L13.7 202C27.3 205 54.7 211 82 220C109.3 229 136.7 241 163.8 237C191 233 218 213 245.2 215C272.3 217 299.7 241 327 275C354.3 309 381.7 353 409 354C436.3 355 463.7 313 491 278C518.3 243 545.7 215 573 216C600.3 217 627.7 247 654.8 253C682 259 709 241 736.2 255C763.3 269 790.7 315 818 317C845.3 319 872.7 277 886.3 256L900 235L900 119L886.3 115C872.7 111 845.3 103 818 92C790.7 81 763.3 67 736.2 64C709 61 682 69 654.8 76C627.7 83 600.3 89 573 84C545.7 79 518.3 63 491 64C463.7 65 436.3 83 409 88C381.7 93 354.3 85 327 81C299.7 77 272.3 77 245.2 72C218 67 191 57 163.8 63C136.7 69 109.3 91 82 90C54.7 89 27.3 65 13.7 53L0 41Z" fill="#8caff2"></path><path d="M0 289L13.7 293C27.3 297 54.7 305 82 306C109.3 307 136.7 301 163.8 293C191 285 218 275 245.2 278C272.3 281 299.7 297 327 326C354.3 355 381.7 397 409 406C436.3 415 463.7 391 491 357C518.3 323 545.7 279 573 271C600.3 263 627.7 291 654.8 306C682 321 709 323 736.2 336C763.3 349 790.7 373 818 367C845.3 361 872.7 325 886.3 307L900 289L900 233L886.3 254C872.7 275 845.3 317 818 315C790.7 313 763.3 267 736.2 253C709 239 682 257 654.8 251C627.7 245 600.3 215 573 214C545.7 213 518.3 241 491 276C463.7 311 436.3 353 409 352C381.7 351 354.3 307 327 273C299.7 239 272.3 215 245.2 213C218 211 191 231 163.8 235C136.7 239 109.3 227 82 218C54.7 209 27.3 203 13.7 200L0 197Z" fill="#76a1ef"></path><path d="M0 451L13.7 466C27.3 481 54.7 511 82 520C109.3 529 136.7 517 163.8 510C191 503 218 501 245.2 508C272.3 515 299.7 531 327 539C354.3 547 381.7 547 409 532C436.3 517 463.7 487 491 470C518.3 453 545.7 449 573 456C600.3 463 627.7 481 654.8 498C682 515 709 531 736.2 531C763.3 531 790.7 515 818 502C845.3 489 872.7 479 886.3 474L900 469L900 287L886.3 305C872.7 323 845.3 359 818 365C790.7 371 763.3 347 736.2 334C709 321 682 319 654.8 304C627.7 289 600.3 261 573 269C545.7 277 518.3 321 491 355C463.7 389 436.3 413 409 404C381.7 395 354.3 353 327 324C299.7 295 272.3 279 245.2 276C218 273 191 283 163.8 291C136.7 299 109.3 305 82 304C54.7 303 27.3 295 13.7 291L0 287Z" fill="#648ad3"></path><path d="M0 601L13.7 601C27.3 601 54.7 601 82 601C109.3 601 136.7 601 163.8 601C191 601 218 601 245.2 601C272.3 601 299.7 601 327 601C354.3 601 381.7 601 409 601C436.3 601 463.7 601 491 601C518.3 601 545.7 601 573 601C600.3 601 627.7 601 654.8 601C682 601 709 601 736.2 601C763.3 601 790.7 601 818 601C845.3 601 872.7 601 886.3 601L900 601L900 467L886.3 472C872.7 477 845.3 487 818 500C790.7 513 763.3 529 736.2 529C709 529 682 513 654.8 496C627.7 479 600.3 461 573 454C545.7 447 518.3 451 491 468C463.7 485 436.3 515 409 530C381.7 545 354.3 545 327 537C299.7 529 272.3 513 245.2 506C218 499 191 501 163.8 508C136.7 515 109.3 527 82 518C54.7 509 27.3 479 13.7 464L0 449Z" fill="#5373b7"></path></svg>